<?xml version="1.0" encoding="utf-8"?>
<!-- Generator: Adobe Illustrator 25.3.1, SVG Export Plug-In . SVG Version: 6.00 Build 0)  -->
<svg version="1.1" id="레이어_1" xmlns:v="https://vecta.io/nano"
	 xmlns="http://www.w3.org/2000/svg" xmlns:xlink="http://www.w3.org/1999/xlink" x="0px" y="0px" viewBox="0 0 318 178"
	 style="enable-background:new 0 0 318 178;" xml:space="preserve">
<style type="text/css">
	.st0{fill:#C2D1DB;}
	.st1{fill:#F6F4F3;}
	.st2{fill:none;stroke:#D12D2C;stroke-width:11;}
	.st3{fill:url(#SVGID_1_);}
	.st4{fill:url(#SVGID_2_);}
	.st5{fill:#F5D95C;stroke:#F0C814;stroke-width:2;}
	.st6{fill:#F5D95C;stroke:#F0C814;stroke-width:3;}
	.st7{fill:#DCB918;}
	.st8{fill:#831B1F;}
	.st9{fill:none;stroke:#6E1418;stroke-width:3;stroke-linecap:round;stroke-dasharray:1,5;}
	.st10{fill:none;stroke:#7B1FA2;stroke-width:3;stroke-linecap:round;stroke-dasharray:1,5;}
	.st11{fill:#D6F6F6;}
	.st12{fill:#B2EBF2;}
	.st13{fill:#CDF5F5;}
	.st14{fill:#BFE8ED;}
	.st15{fill:#E6FFFF;}
	.st16{fill:#F0C814;}
	.st17{fill:#FFB9B6;stroke:#D12D2C;stroke-width:11;}
	.st18{fill:#E3ACF1;}
	.st19{fill:#D12D2C;}
	.st20{fill:#FEFAEC;}
	.st21{fill:#F5D95C;}
	.st22{fill:#FFFFFF;}
	.st23{fill:#6B1D2A;}
	.st24{fill:none;stroke:#DB6565;stroke-width:3;}
	.st25{fill:#FAEDFC;stroke:#E3ACF1;stroke-width:11;}
	.st26{fill:#FF6456;}
</style>
<g>
	<path class="st0" d="M4.8,164h308.4c2.7,0,4.8,1.8,4.8,4s-2.2,4-4.8,4H4.8c-2.7,0-4.8-1.8-4.8-4S2.2,164,4.8,164z"/>
	<path class="st0" d="M47.2,167.3h216.3c1.9,0,3.5,1.8,3.5,4s-1.6,4-3.5,4H47.2c-1.9,0-3.5-1.8-3.5-4S45.2,167.3,47.2,167.3z"/>
</g>
<path class="st1" d="M100.4,92.8c1.2-1.4,1.5-3,2.8-4.3c0.8-0.9,2-1.6,2.8-2.5c0.5-0.5,0.7-1.1,1.2-1.7l1.5-1.7
	c0.2-0.3,0.3-0.5,0.7-0.8c2.5-1.2,6.9-0.7,10.2-1c1.8-0.2,2.8-0.7,3.9-1.4c2.7-1.6,3.3-5.1,7.6-4.6c3.4,0.4,8.2,4.3,12,4.6
	s3.2,4.5,5.6,3.2c1.3-0.7,5.2,0.8,8.5,0.8s0.9,1.9,3.2,2.3c1.2,0.2,8.2,7,8,7.9l-3.3,1.8c0.1,1,4.5-1.7,3.5-0.8
	c-0.5,0.5-3.3-0.5-4.3-0.4c-2.3,0.3-4.5,0.8-6.9,0.9c-5.3,0.1-11.7-0.4-17-0.7c-7.7-0.4-13.2,1.1-20.8,0.2c-4.7-0.6-3.3,0.9-7.6-0.2
	c-2.6-0.6-10.6,1-9.7,0"/>
<path class="st1" d="M0,0"/>
<path class="st2" d="M204.5,36.6c3.5,0,6.8,1.3,9.2,3.8c2.8,2.7,4.2,6.6,3.8,10.4l-4.7,51.5H95.7l-4.8-51.1
	C90.2,44,95.4,37.7,102.5,37c0.4,0,0.8-0.1,1.3-0.1L204.5,36.6L204.5,36.6z"/>
<linearGradient id="SVGID_1_" gradientUnits="userSpaceOnUse" x1="155.3495" y1="26.359" x2="155.3495" y2="173.889" gradientTransform="matrix(1 0 0 -1 0 177.89)">
	<stop  offset="0" style="stop-color:#EEEEEE;stop-opacity:0.6"/>
	<stop  offset="1" style="stop-color:#FFD322;stop-opacity:0"/>
</linearGradient>
<path class="st3" d="M155,151.5L62.1,4h186.6L155,151.5L155,151.5z"/>
<linearGradient id="SVGID_2_" gradientUnits="userSpaceOnUse" x1="155.5" y1="20.809" x2="155.5" y2="181.123" gradientTransform="matrix(1 0 0 -1 0 177.89)">
	<stop  offset="0" style="stop-color:#FFD322"/>
	<stop  offset="1" style="stop-color:#FFFFFF;stop-opacity:0"/>
</linearGradient>
<path class="st4" d="M155.1,152L62,0h187L155.1,152z"/>
<g>
	<path class="st5" d="M168.3,71.9c2.1,0,3.8-1.7,3.8-3.8c0-2.1-1.7-3.8-3.8-3.8s-3.8,1.7-3.8,3.8C164.6,70.3,166.2,71.9,168.3,71.9z
		 M203.4,88c2.2,0,3.9-1.7,4-3.8c0-2.2-1.7-3.9-3.8-4c0,0-0.1,0-0.1,0c-2.2,0-3.9,1.8-3.8,4C199.6,86.3,201.3,88,203.4,88z"/>
	<path class="st6" d="M115.4,88.2c1.2,0,2.2-1.1,2.2-2.6s-1-2.6-2.2-2.6s-2.2,1.1-2.2,2.6S114.2,88.2,115.4,88.2L115.4,88.2z"/>
	<path class="st5" d="M131.2,78.2c2.1,0,3.8-1.7,3.8-3.8c0-2.1-1.7-3.8-3.8-3.8c-2.1,0-3.7,1.7-3.7,3.8
		C127.4,76.5,129.1,78.2,131.2,78.2L131.2,78.2z"/>
</g>
<path class="st7" d="M206.2,93.8c-8.8,0-6-7.7-9.9-12.9s-6.3-13.5-11.7-15.3s-9.3-1.7-15.1,1.3c-5.8,3.1-25.3,11.3-37.5,7.4
	s-17.5,17.4-29.2,17.4c0-0.3,0.2,0.7,0.5,3.1h45.3C148.5,94.9,206.2,93.8,206.2,93.8z"/>
<path class="st8" d="M187.9,81.5l-7.7-13.4c-0.3-0.6-0.4-1.2-0.2-1.8l2.2-8.2c0.4-1.3,1.7-2.1,3-1.7l8.2,2.2
	c0.6,0.2,1.2,0.6,1.5,1.1l7.7,13.4c0.3,0.5,0.4,1.2,0.2,1.8c-0.2,0.6-0.6,1.2-1.1,1.5l-10.4,6c-0.6,0.3-1.2,0.4-1.8,0.2
	C188.8,82.5,188.2,82.1,187.9,81.5z M187,61.5c0.2-0.9-0.3-1.9-1.2-2.1c-0.9-0.2-1.9,0.3-2.1,1.2l0,0c-0.2,0.9,0.3,1.9,1.2,2.1
	c0,0,0,0,0,0C185.8,63,186.7,62.5,187,61.5L187,61.5z"/>
<path class="st9" d="M185.9,59.9c1-8.7,6.6-13.1,16.9-13.1"/>
<path class="st10" d="M0,0"/>
<path class="st11" d="M148.2,61.9l2.5-6.9l-3.9,1.4L148.2,61.9z"/>
<path class="st12" d="M148.2,61.9l-0.6-5.5l-3.1,1.5L148.2,61.9z"/>
<path class="st13" d="M148.2,61.9l-3.8-4l-3.1,1.5L148.2,61.9z"/>
<path class="st14" d="M145.4,55.5l2.2,0.9l-3.1,1.5L145.4,55.5z"/>
<path class="st12" d="M148.6,54.1l2.2,0.9l-3.1,1.5L148.6,54.1z M142.2,57.1l2.3,0.8l-3.1,1.5L142.2,57.1z"/>
<path class="st15" d="M144.4,57.9l0.9-2.4l-3.1,1.5L144.4,57.9z M147.6,56.4l0.8-2.3l-3.1,1.5L147.6,56.4L147.6,56.4z"/>
<path class="st16" d="M113.8,86.4c7.2,0,15.3-1.2,18.5-6.1s5.2-12.7,9.6-14.3s7.6-1.6,12.5,1.2s12.9,10.6,22.9,7
	s22.5,12.3,32.2,12.3c0-0.3-0.1,2-0.4,7H98.1C103.8,88.7,109,86.4,113.8,86.4L113.8,86.4z"/>
<path class="st17" d="M205.9,95.5c7.4,0,13.4,6,13.5,13.4c0,0.1,0,0.1,0,0.2l-1.4,42.4c-0.1,3.5-1.6,6.8-4.1,9.2
	c-2.5,2.4-5.9,3.8-9.3,3.8H103c-7.1,0-13-5.5-13.4-12.6l-2.6-42c-0.5-7.4,5.1-13.8,12.5-14.2c0.3,0,0.6,0,0.9,0L205.9,95.5
	L205.9,95.5z"/>
<path class="st18" d="M0,0"/>
<path class="st19" d="M217.6,88.6L207,88.5c-3.2,6.2-2.6,11.6,1.7,16s9.6,4.5,15.7,0.4l0-9.3C224.5,91.7,221.4,88.6,217.6,88.6z
	 M225,162.1l0-9c-6.3-3.2-11.6-2.6-16.1,1.7s-4.5,9.7-0.4,15.9l7.7,0C221.1,170.7,225,166.8,225,162.1z M87.3,90.7l10.6-0.1
	c3.2,6.2,2.6,11.6-1.7,16s-9.6,4.5-15.7,0.4l0-9.3C80.4,93.8,83.5,90.7,87.3,90.7z M82.3,163.5l0-9.4c6.4-3.3,11.9-2.7,16.5,1.8
	s4.7,9.9,0.4,16.2l-8.1,0C86.2,172.2,82.3,168.3,82.3,163.5L82.3,163.5z"/>
<path class="st16" d="M59.5,52L57,54.5l2.5,2.5l2.5-2.5L59.5,52L59.5,52z M100.2,16.8l-2.5,2.5l2.5,2.5l2.5-2.5L100.2,16.8z
	 M238.9,42.9l-2.5,2.5l2.5,2.5l2.5-2.5L238.9,42.9z"/>
<path class="st20" d="M153.1,80.9c1.2,0,3.1-0.8,3.1-1.7s-1.9-1.7-3.1-1.7s-2.1,0.8-2.1,1.7S151.9,80.9,153.1,80.9z M182.2,84.3
	c-1,0-2.6-0.8-2.6-1.7s1.6-1.7,2.6-1.7c1,0,1.8,0.8,1.8,1.7C183.9,83.6,183.1,84.3,182.2,84.3z M193.8,87c-0.8,0-2.1-0.8-2.1-1.4
	s1.3-1.2,2.1-1.2s1.4,0.5,1.4,1.2S194.6,87,193.8,87z"/>
<path class="st21" d="M73.7,89.6l-1.3,5.2l-1-5.2l-5.2-1l5.2-1.3l1.3-5.2l1,5.2l5.2,1L73.7,89.6z M179.3,18.5l-1.9,8.1l-1.6-8
	l-8-1.6l8.1-1.9l1.9-8.1l1.6,8l8,1.6C187.4,16.6,179.3,18.5,179.3,18.5z M242,76.6l-1.3,5.2l-1-5.2l-5.2-1l5.2-1.3l1.3-5.2l1,5.2
	l5.2,1L242,76.6L242,76.6z"/>
<path class="st22" d="M126.3,87.1c2.1,0-11.8-15.6-13.9-15.6s0.9,5.7,0.9,8.3S124.2,87.1,126.3,87.1L126.3,87.1z"/>
<path class="st23" d="M134.1,76.8l-0.4,0c-7.5-0.2-13.5-6.2-13.7-13.6l0-0.4c0-0.9,0.1-1.7,0.2-2.6c-7.1,1.4-12,7.9-11.3,15
	s6.7,12.7,13.9,12.7c6.8,0,12.6-4.8,13.8-11.5C135.8,76.7,135,76.8,134.1,76.8z M123.3,85.4c-3.1,0-6.1-1.3-8.1-3.7
	c-2.1-2.3-3-5.4-2.7-8.5c0.7,6.4,5.7,11.4,12.1,12.1C124.1,85.3,123.7,85.4,123.3,85.4z"/>
<line class="st24" x1="106.8" y1="120.1" x2="199.6" y2="120.1"/>
<line class="st24" x1="106.8" y1="134" x2="199.6" y2="134"/>
<line class="st24" x1="106.8" y1="146.5" x2="199.6" y2="146.5"/>
<g>
	<path class="st25" d="M0,0"/>
	<path class="st26" d="M153.2,120.1c9.6,0,17.4-7.8,17.4-17.4c0-9.6-7.8-17.4-17.4-17.4c-9.6,0-17.4,7.8-17.4,17.4
		C135.8,112.3,143.6,120.1,153.2,120.1z"/>
</g>
<path class="st22" d="M165.3,90.7l-1.5,4l-1.5-4l-3.9-1.5l3.9-1.5l1.5-4l1.5,4l3.9,1.5L165.3,90.7z M211,41.9l-1.5,4l-1.5-4
	l-3.9-1.5l3.9-1.5l1.5-4l1.5,4l3.9,1.5L211,41.9L211,41.9z M98.9,41l-1.3,5.2l-1-5.2l-5.2-1l5.2-1.3l1.3-5.2l1,5.2l5.2,1L98.9,41
	L98.9,41z"/>
</svg>
